<?xml version="1.0" encoding="UTF-8"?>
<svg id="_レイヤー_1" data-name="レイヤー 1" xmlns="http://www.w3.org/2000/svg" xmlns:xlink="http://www.w3.org/1999/xlink" viewBox="0 0 918.41 1024">
  <defs>
    <style>
      .cls-1 {
        fill: url(#_名称未設定グラデーション_6-2);
      }

      .cls-2 {
        fill: url(#_名称未設定グラデーション_7);
      }

      .cls-3 {
        fill: url(#_名称未設定グラデーション_6);
      }
    </style>
    <linearGradient id="_名称未設定グラデーション_7" data-name="名称未設定グラデーション 7" x1="78.36" y1="230.48" x2="344.19" y2="347.21" gradientUnits="userSpaceOnUse">
      <stop offset="0" stop-color="#58ba89"/>
      <stop offset=".2" stop-color="#5bba85"/>
      <stop offset=".37" stop-color="#64bd7b"/>
      <stop offset=".53" stop-color="#75c269"/>
      <stop offset=".68" stop-color="#8cc950"/>
      <stop offset=".83" stop-color="#aad130"/>
      <stop offset=".97" stop-color="#cedc09"/>
      <stop offset="1" stop-color="#d8df00"/>
    </linearGradient>
    <linearGradient id="_名称未設定グラデーション_6" data-name="名称未設定グラデーション 6" x1="200.25" y1="424.01" x2="759.41" y2="669.54" gradientUnits="userSpaceOnUse">
      <stop offset="0" stop-color="#58ba89"/>
      <stop offset="1" stop-color="#d8df00"/>
    </linearGradient>
    <linearGradient id="_名称未設定グラデーション_6-2" data-name="名称未設定グラデーション 6" x1="40.28" y1="355.46" x2="912.6" y2="738.49" xlink:href="#_名称未設定グラデーション_6"/>
  </defs>
  <rect class="cls-2" x="172.63" width="77.28" height="577.69" rx="20" ry="20"/>
  <path class="cls-3" d="m479.83,318.79c60.9,0,118.15,23.71,161.21,66.78,43.06,43.06,66.78,100.31,66.78,161.21s-23.71,118.15-66.78,161.21-100.31,66.78-161.21,66.78-118.15-23.71-161.21-66.78c-43.06-43.06-66.78-100.31-66.78-161.21s23.71-118.15,66.78-161.21c43.06-43.06,100.31-66.78,161.21-66.78m0-77.28c-168.59,0-305.27,136.67-305.27,305.27s136.67,305.27,305.27,305.27,305.27-136.67,305.27-305.27-136.67-305.27-305.27-305.27h0Z"/>
  <path class="cls-1" d="m474.73,1024c-232.87.02-368.79-177.25-383.55-197.5C.2,701.7-2.37,568.75.75,517.39c1.76-28.93,7.73-74.57,26.23-127.73,27.09-77.87,71.35-144.57,131.53-198.24,33.32-29.72,155.87-126.18,334.28-119.91,126.41,4.46,218.94,58.57,262.84,90.42,86.26,62.59,132.78,140.28,156.61,194.43,8.6,19.53-.27,42.34-19.8,50.93-19.54,8.6-42.34-.27-50.93-19.8-19.99-45.42-58.99-110.57-131.27-163.01-36.77-26.68-114.28-72-220.18-75.74-149.61-5.27-252.23,75.47-280.12,100.35-113.29,101.03-129.72,234.48-132.05,272.98-2.61,43.02-.46,154.38,75.73,258.91,3.45,4.73,35.33,47.42,91.22,88.06,70.88,51.54,148.23,77.68,229.88,77.68.38,0,.75,0,1.13,0,152.91-.45,295.41-93.8,365.28-238.56v-115.01h-361.3c-21.34,0-38.64-17.3-38.64-38.64s17.3-38.64,38.64-38.64h438.58v209.39l-3.53,7.68c-81.04,176.26-253.28,290.51-438.8,291.06-.44,0-.91,0-1.36,0Z"/>
</svg>