<?xml version="1.0" standalone="no"?>
<!DOCTYPE svg PUBLIC "-//W3C//DTD SVG 20010904//EN"
 "http://www.w3.org/TR/2001/REC-SVG-20010904/DTD/svg10.dtd">
<svg version="1.0" xmlns="http://www.w3.org/2000/svg"
 width="200.000000pt" height="200.000000pt" viewBox="0 0 200.000000 200.000000"
 preserveAspectRatio="xMidYMid meet">

<g transform="translate(0.000000,200.000000) scale(0.100000,-0.100000)"
fill="#000000" stroke="none">
<path d="M924 1956 c-58 -26 -101 -107 -91 -170 5 -31 2 -35 -46 -63 -29 -16
-120 -69 -203 -117 l-152 -87 -37 25 c-68 47 -171 30 -226 -37 -10 -12 -23
-41 -30 -65 -21 -76 16 -154 92 -192 l39 -20 0 -230 0 -230 -39 -20 c-75 -38
-114 -118 -92 -190 14 -46 52 -95 92 -115 46 -24 120 -19 164 10 l37 26 203
-117 202 -116 -4 -42 c-5 -49 27 -119 70 -150 40 -30 154 -30 194 0 42 31 75
100 71 153 l-3 45 185 108 c102 59 192 110 202 113 9 3 33 -6 53 -20 44 -29
118 -34 164 -10 40 20 78 69 92 115 22 72 -17 152 -92 190 l-39 20 0 230 0
230 39 20 c47 24 77 60 93 111 20 70 -21 157 -94 195 -45 23 -119 18 -163 -12
l-37 -25 -152 87 c-83 48 -174 101 -202 117 -50 29 -51 30 -47 71 5 49 -27
119 -69 150 -35 25 -130 32 -174 12z m-44 -280 c0 -4 -167 -295 -388 -676 -53
-91 -105 -182 -116 -202 -12 -21 -24 -38 -28 -38 -5 0 -8 107 -8 238 l1 237
39 18 c57 27 84 69 88 142 l4 61 192 111 c170 100 216 123 216 109z m454 -108
l194 -112 4 -61 c4 -73 31 -115 88 -142 l39 -18 1 -237 c0 -131 -3 -238 -7
-238 -5 1 -62 94 -127 208 -66 114 -184 319 -263 455 -79 137 -143 251 -143
253 0 13 40 -7 214 -108z m-276 57 c6 -6 72 -118 148 -250 75 -132 190 -332
255 -444 l118 -204 -18 -26 c-10 -14 -21 -34 -24 -43 -6 -17 -41 -18 -537 -18
-496 0 -531 1 -537 18 -3 9 -14 28 -24 43 -19 28 -24 18 111 249 21 36 107
184 190 330 225 391 201 357 260 356 27 -1 53 -6 58 -11z m470 -1077 c-2 -6
-93 -63 -201 -126 l-197 -114 -26 21 c-57 45 -145 47 -199 7 -11 -9 -26 -16
-33 -16 -17 0 -402 222 -402 233 0 4 239 7 531 7 402 0 530 -3 527 -12z"/>
</g>
</svg>
