<?xml version="1.0" encoding="UTF-8"?>
<svg id="_レイヤー_1" data-name="レイヤー 1" xmlns="http://www.w3.org/2000/svg" viewBox="0 0 1022.88 627">
  <defs>
    <style>
      .cls-1 {
        fill: none;
        stroke: #000;
        stroke-miterlimit: 10;
        stroke-width: 40px;
      }
    </style>
  </defs>
  <rect class="cls-1" x="20" y="20" width="982.88" height="587" rx="40.69" ry="40.69"/>
  <path d="m341.94,413.61c33.75-41.71,67.5-83.42,101.25-125.14-.38,65.22-.76,130.44-1.14,195.67h98.97V145.14c-32.23-.38-64.46-.76-96.7-1.14-33.75,42.47-67.5,84.94-101.25,127.41-34.51-42.47-69.01-84.94-103.52-127.41h-96.7c.38,112.62.76,225.24,1.14,337.87h97.83c.76-64.46,1.52-128.93,2.28-193.39,32.61,41.71,65.22,83.42,97.83,125.14Z"/>
  <path d="m760.58,486.41c48.73-56.69,97.45-113.38,146.18-170.07-32.61-.38-65.22-.76-97.83-1.14v-169.5h-97.83v168.36c-32.99.38-65.98.76-98.97,1.14,49.49,57.07,98.97,114.14,148.46,171.21Z"/>
</svg>