<?xml version="1.0" encoding="utf-8"?>
<!-- Generator: Adobe Illustrator 27.5.0, SVG Export Plug-In . SVG Version: 6.00 Build 0)  -->
<svg version="1.1" id="レイヤー_1" xmlns="http://www.w3.org/2000/svg" xmlns:xlink="http://www.w3.org/1999/xlink" x="0px"
	 y="0px" viewBox="0 0 512 512" style="enable-background:new 0 0 512 512;" xml:space="preserve">
<style type="text/css">
	.st0{fill:#CC0102;}
</style>
<g transform="translate(0.000000,512.000000) scale(0.100000,-0.100000)">
	<path class="st0" d="M2330,5110c-798-77-1513-517-1941-1195c-141-224-265-527-323-787c-108-484-77-991,89-1444
		c51-141,183-402,263-522c253-380,599-690,991-886C1953,2,2572-69,3165,75c445,107,843,328,1177,654c218,211,375,427,508,696
		c93,189,139,310,185,489c112,442,112,850,0,1292c-45,176-91,297-185,489c-132,269-292,488-517,705c-206,199-383,324-644,454
		c-242,121-507,203-779,241C2773,5115,2463,5122,2330,5110z M3142,4224l75-7l11-71c6-39,7-75,3-79s-59-6-122-5l-114,3l-11,50
		c-6,28-14,65-17,83l-6,32h53C3043,4230,3101,4227,3142,4224z M2609,3980c1-5-183-110-191-110c-10,0-139,162-134,167
		c3,4,45,28,93,54l88,48l72-77C2577,4020,2609,3983,2609,3980z M3430,4025c222-52,424-151,615-300c124-97,121-91,79-154l-35-52
		l-39,35c-92,83-232,130-385,129c-236,0-480-116-690-327c-187-187-302-409-351-675c-21-114-29-417-15-564c29-300,114-650,231-953
		l28-74h-784h-784v160c0,361,97,837,247,1220c104,265,294,642,420,835c276,422,651,675,1085,734C3147,4052,3347,4044,3430,4025z
		 M3885,3972c77-56,84-65,75-83c-18-33-31-31-112,12c-68,35-78,44-78,67c0,37,11,73,21,70C3795,4036,3837,4007,3885,3972z
		 M1927,3557l93-59l-77-91c-42-51-78-94-80-96c-4-6-213,133-210,141c7,23,160,177,170,171C1830,3620,1877,3590,1927,3557z
		 M3840,3576c54-12,55-13,58-50l3-38l-58,7c-104,11-103,11-103,55C3740,3596,3747,3598,3840,3576z M3417,3515l10-45l-46-38
		c-71-59-67-60-106,18c-25,51-32,72-23,75c17,6,130,33,144,34C3402,3560,3411,3540,3417,3515z M3059,3248c28-42,51-81,51-87
		c0-5-15-35-32-66l-33-56l-82,88c-45,48-82,92-83,98c0,14,114,115,121,107C3005,3328,3030,3290,3059,3248z M1537,2760l22-9l-40-113
		c-22-62-41-113-42-114c-6-5-272,85-272,92c0,11,53,167,71,211l13,31l113-44C1464,2790,1525,2766,1537,2760z M2878,2765
		c28-22,52-45,52-52c0-8-10-52-21-99c-19-75-23-83-38-72c-65,51-181,153-181,160c0,5,16,40,36,79l35,71l32-24
		C2811,2814,2849,2786,2878,2765z M2788,2261c54-27,103-55,109-63c12-14,22-188,11-188c-4,0-58,22-120,49c-103,45-113,52-116,78
		c-4,32,7,173,14,173C2688,2310,2734,2288,2788,2261z M1173,1864c64-3,119-10,122-14c5-7-43-291-50-298c-4-4-278,28-283,33
		c-4,4,27,263,34,283c2,9,14,12,31,8C1043,1873,1108,1868,1173,1864z M3049,1513c21-43,46-95,55-116l15-38l-142,7
		c-78,4-149,10-157,14c-8,5-26,48-39,97c-13,48-26,94-29,101c-3,9,26,12,127,12h131L3049,1513z"/>
</g>
</svg>
