<?xml version="1.0" encoding="utf-8"?>
<!-- Generator: Adobe Illustrator 27.5.0, SVG Export Plug-In . SVG Version: 6.00 Build 0)  -->
<svg version="1.1" id="レイヤー_1" xmlns="http://www.w3.org/2000/svg" xmlns:xlink="http://www.w3.org/1999/xlink" x="0px"
	 y="0px" viewBox="0 0 512 512" style="enable-background:new 0 0 512 512;" xml:space="preserve">
<style type="text/css">
	.st0{fill:#CC6599;}
</style>
<g transform="translate(0.000000,512.000000) scale(0.100000,-0.100000)">
	<path class="st0" d="M2415,5109c-613-30-1215-300-1660-744c-376-377-620-850-716-1392c-27-149-37-507-20-675
		c90-866,628-1641,1406-2023C1805,89,2148,8,2564,9c394,0,743,79,1091,245c767,367,1287,1066,1432,1923c26,155,26,611,0,766
		c-73,432-239,824-487,1151c-314,413-749,728-1225,885C3049,5087,2762,5126,2415,5109z M3510,4485c371-56,612-231,665-482
		c37-173,6-353-93-548c-62-119-141-222-256-332c-159-152-308-240-531-313c-324-105-659-126-872-55c-168,57-310,193-301,288
		c5,48,29,44,97-16c109-98,239-134,450-124c139,7,280,35,426,87c360,128,658,384,769,659c27,67,31,88,31,176c0,84-4,107-22,141
		c-47,88-154,155-308,190c-109,26-377,26-520,0c-302-54-643-191-985-396c-482-288-730-588-730-884c0-215,108-356,510-667
		c74-57,173-140,220-184l85-81l70,18c91,24,326,38,440,27c312-29,547-214,601-472c34-161-30-307-170-388c-106-60-160-23-66,46
		c90,66,139,162,126,247c-18,117-110,236-234,301c-162,85-423,115-630,71c-25-5-32-11-27-23c42-108,56-299,31-439
		c-50-286-228-517-490-637c-109-50-195-68-321-69c-193,0-281,46-341,177c-27,57-29,71-29,182c0,106,3,129,28,195
		c72,197,318,411,725,631c34,18,62,37,62,41c0,9-84,71-305,226c-267,186-405,304-509,434c-201,251-225,446-89,726
		c158,323,524,648,1018,904c401,206,709,311,1040,351C3157,4503,3424,4499,3510,4485z"/>
	<path class="st0" d="M1965,1652c-344-191-555-435-555-644c0-122,126-150,293-67c174,86,308,256,353,445c17,72,15,246-3,290
		C2045,1695,2042,1694,1965,1652z"/>
</g>
</svg>
